<?xml version="1.0" encoding="UTF-8" standalone="no"?>
<svg width="159px" height="169px" viewBox="0 0 159 169" version="1.1" xmlns="http://www.w3.org/2000/svg" xmlns:xlink="http://www.w3.org/1999/xlink" xmlns:sketch="http://www.bohemiancoding.com/sketch/ns">
    <!-- Generator: Sketch 3.4.4 (17249) - http://www.bohemiancoding.com/sketch -->
    <title>stelaDash</title>
    <desc>Created with Sketch.</desc>
    <defs>
        <radialGradient cx="50%" cy="0%" fx="50%" fy="0%" r="100%" id="radialGradient-1">
            <stop stop-color="#A7B1EE" offset="0%"></stop>
            <stop stop-color="#101A7E" offset="100%"></stop>
        </radialGradient>
        <radialGradient cx="50%" cy="0%" fx="50%" fy="0%" r="100%" id="radialGradient-2">
            <stop stop-color="#1EF98B" stop-opacity="0.5" offset="0%"></stop>
            <stop stop-color="#000000" stop-opacity="0.5" offset="100%"></stop>
        </radialGradient>
        <path id="path-3" d="M37.3578529,60.7024345 C47.4004131,47.1906263 57,19 57,19 C57,19 103.027813,80.9283296 112,93 C121.361146,105.594996 2,93 2,93 C2,93 29.0670798,71.857293 37.3578529,60.7024345 Z"></path>
        <radialGradient cx="50%" cy="0%" fx="50%" fy="0%" r="100%" id="radialGradient-4">
            <stop stop-color="#A4B1FF" offset="0%"></stop>
            <stop stop-color="#101A7E" offset="100%"></stop>
        </radialGradient>
        <radialGradient cx="50%" cy="0%" fx="50%" fy="0%" r="100%" id="radialGradient-5">
            <stop stop-color="#01FF86" stop-opacity="0.5" offset="0%"></stop>
            <stop stop-color="#000000" stop-opacity="0.5" offset="100%"></stop>
        </radialGradient>
        <path id="path-6" d="M52.3578529,54.7024345 C62.4004131,41.1906263 72,13 72,13 C72,13 118.027813,74.9283296 127,87 C136.361146,99.5949962 17,87 17,87 C17,87 44.0670798,65.857293 52.3578529,54.7024345 Z"></path>
        <radialGradient cx="50%" cy="0%" fx="50%" fy="0%" r="105.60312%" id="radialGradient-7">
            <stop stop-color="#5A6BD5" offset="0%"></stop>
            <stop stop-color="#101A7E" offset="100%"></stop>
        </radialGradient>
        <radialGradient cx="50%" cy="0%" fx="50%" fy="0%" r="100%" id="radialGradient-8">
            <stop stop-color="#00FF80" stop-opacity="0.5" offset="0%"></stop>
            <stop stop-color="#000000" stop-opacity="0.5" offset="100%"></stop>
        </radialGradient>
        <path id="path-9" d="M69.3578529,48.7024345 C79.4004131,35.1906263 89,7 89,7 C89,7 135.027813,68.9283296 144,81 C153.361146,93.5949962 34,81 34,81 C34,81 61.0670798,59.857293 69.3578529,48.7024345 Z"></path>
        <radialGradient cx="50%" cy="0%" fx="50%" fy="0%" r="100%" id="radialGradient-10">
            <stop stop-color="#000C8A" offset="0%"></stop>
            <stop stop-color="#D8D8D8" offset="100%"></stop>
        </radialGradient>
        <radialGradient cx="50%" cy="55.2156927%" fx="50%" fy="55.2156927%" r="100%" id="radialGradient-11">
            <stop stop-color="#00FF83" stop-opacity="0.5" offset="0%"></stop>
            <stop stop-color="#000000" stop-opacity="0.5" offset="100%"></stop>
        </radialGradient>
        <path id="path-12" d="M83.3578529,43.7024345 C93.4004131,30.1906263 103,2 103,2 C103,2 148.588489,62.1701356 157.560677,74.241806 C166.921822,86.8368023 48,76 48,76 C48,76 75.0670798,54.857293 83.3578529,43.7024345 Z"></path>
        <path id="path-13" d="M83.3578529,113.102942 C93.4004131,99.5911333 103,71.400507 103,71.400507 C103,71.400507 148.588489,131.570643 157.560677,143.642313 C166.921822,156.237309 48.0567197,144.001734 48.0567197,144.001734 C48.0567197,144.001734 75.0670798,124.2578 83.3578529,113.102942 Z"></path>
        <path id="path-14" d="M69.3578529,117.702435 C79.4004131,104.190626 89,76 89,76 L144,150 C153.361146,162.594996 34,150 34,150 C34,150 61.0670798,128.857293 69.3578529,117.702435 Z"></path>
        <path id="path-15" d="M52.3578529,123.702435 C62.4004131,110.190626 72,82 72,82 L127,156 C136.361146,168.594996 17,156 17,156 C17,156 44.0670798,134.857293 52.3578529,123.702435 Z"></path>
        <path id="path-16" d="M37.3578529,129.702435 C47.4004131,116.190626 57,88 57,88 L112,162 C121.361146,174.594996 2,162 2,162 C2,162 29.0670798,140.857293 37.3578529,129.702435 Z"></path>
    </defs>
    <g id="Page-1" stroke="none" stroke-width="1" fill="none" fill-rule="evenodd" sketch:type="MSPage">
        <g id="Triangle-1">
            <use stroke="#FFFFFF" stroke-width="1" fill="url(#radialGradient-1)" sketch:type="MSShapeGroup" xlink:href="#path-3"></use>
            <use stroke="none" fill="url(#radialGradient-2)" xlink:href="#path-3"></use>
        </g>
        <g id="Triangle-1">
            <use stroke="#FFFFFF" stroke-width="1" fill="url(#radialGradient-4)" sketch:type="MSShapeGroup" xlink:href="#path-6"></use>
            <use stroke="none" fill="url(#radialGradient-5)" xlink:href="#path-6"></use>
        </g>
        <g id="Triangle-1">
            <use stroke="#FFFFFF" stroke-width="1" fill="url(#radialGradient-7)" sketch:type="MSShapeGroup" xlink:href="#path-9"></use>
            <use stroke="none" fill="url(#radialGradient-8)" xlink:href="#path-9"></use>
        </g>
        <g id="Triangle-1">
            <use stroke="#FFFFFF" stroke-width="1" fill="url(#radialGradient-10)" sketch:type="MSShapeGroup" xlink:href="#path-12"></use>
            <use stroke="none" fill="url(#radialGradient-11)" xlink:href="#path-12"></use>
        </g>
        <g id="Triangle-1">
            <use stroke="#FFFFFF" stroke-width="1" fill="url(#radialGradient-10)" sketch:type="MSShapeGroup" transform="translate(103.071327, 110.367662) scale(1, -1) translate(-103.071327, -110.367662) " xlink:href="#path-13"></use>
            <use stroke="none" fill="url(#radialGradient-11)" xlink:href="#path-13"></use>
        </g>
        <g id="Triangle-1">
            <use stroke="#FFFFFF" stroke-width="1" fill="url(#radialGradient-7)" sketch:type="MSShapeGroup" transform="translate(89.261592, 115.798888) scale(1, -1) translate(-89.261592, -115.798888) " xlink:href="#path-14"></use>
            <use stroke="none" fill="url(#radialGradient-8)" xlink:href="#path-14"></use>
        </g>
        <g id="Triangle-1">
            <use stroke="#FFFFFF" stroke-width="1" fill="url(#radialGradient-4)" sketch:type="MSShapeGroup" transform="translate(72.261592, 121.798888) scale(1, -1) translate(-72.261592, -121.798888) " xlink:href="#path-15"></use>
            <use stroke="none" fill="url(#radialGradient-5)" xlink:href="#path-15"></use>
        </g>
        <g id="Triangle-1">
            <use stroke="#FFFFFF" stroke-width="1" fill="url(#radialGradient-1)" sketch:type="MSShapeGroup" transform="translate(57.261592, 127.798888) scale(1, -1) translate(-57.261592, -127.798888) " xlink:href="#path-16"></use>
            <use stroke="none" fill="url(#radialGradient-2)" xlink:href="#path-16"></use>
        </g>
    </g>
</svg>